<svg width="18" height="13" viewBox="0 0 18 13" fill="none" xmlns="http://www.w3.org/2000/svg">
<path d="M0.317706 6.35956C7.02095 6.35956 7.95934 6.35956 14.6284 6.35956C14.6398 6.32629 14.6512 6.29302 14.6512 6.25975C14.4916 6.18212 14.332 6.10449 14.1724 6.01576C12.0064 4.87345 10.8208 3.06571 10.3762 0.758896C10.3534 0.670173 10.456 0.559269 10.5016 0.448364C10.6042 0.514907 10.7638 0.570359 10.798 0.670173C10.9804 1.19142 11.0716 1.74595 11.2882 2.24501C12.2686 4.52964 14.0128 5.88268 16.5322 6.29302C16.6918 6.3152 16.8058 6.52592 16.9654 6.65901C16.0762 6.94736 15.2896 7.11371 14.5942 7.43534C12.565 8.37802 11.3908 9.99723 10.912 12.1155C10.855 12.3817 10.8892 12.792 10.3648 12.6146C10.7752 9.99723 11.71 8.74401 14.731 6.81427C14.4118 6.81427 14.1952 6.81427 13.9786 6.81427C7.69714 6.81427 7.13493 6.81427 0.842106 6.80318C0.602705 6.80318 0.215105 6.94736 0.317706 6.35956Z" fill="#226819" stroke="#226819" stroke-width="0.6"/>
</svg>
