<svg width="33" height="32" viewBox="0 0 33 32" fill="none" xmlns="http://www.w3.org/2000/svg">
<path d="M5.46914 22.2564C15.5045 16.4625 14.2042 17.2132 24.1883 11.4488C24.2342 11.4888 24.28 11.5287 24.3088 11.5786C24.1369 11.8327 23.9651 12.0869 23.8028 12.3577C21.5475 15.94 21.335 19.6711 22.6633 23.5089C22.7059 23.6614 22.9553 23.7388 23.1194 23.8654C23.2155 23.6771 23.4065 23.4561 23.3715 23.2771C23.194 22.3391 22.8512 21.4301 22.7441 20.4957C22.2372 16.2281 23.6789 12.6949 27.096 9.9029C27.3158 9.73175 27.3043 9.31775 27.4282 8.98056C25.8478 9.31745 24.5264 9.7483 23.2073 9.86787C19.3546 10.2105 16.1972 8.80135 13.6495 6.04396C13.3341 5.69475 13.0306 5.05087 12.3989 5.76979C15.2756 9.33344 17.7583 10.4016 23.9489 10.6794C23.471 10.9553 23.1468 11.1425 22.8225 11.3297C13.4187 16.7591 15.2821 15.6832 5.87077 21.139C5.51237 21.3459 4.80748 21.4651 5.46914 22.2564Z" fill="white" stroke="white"/>
</svg>
