<svg width="6" height="11" viewBox="0 0 6 11" fill="none" xmlns="http://www.w3.org/2000/svg">
<path d="M5.99994 5.19059C6.00239 5.39364 5.92503 5.58952 5.78452 5.73611L1.33008 10.1801C1.25822 10.2527 1.17276 10.3104 1.07861 10.3499C0.984446 10.3894 0.883423 10.41 0.781306 10.4105C0.679188 10.411 0.577975 10.3913 0.483446 10.3527C0.388916 10.3141 0.302922 10.2572 0.230371 10.1853C0.157821 10.1135 0.100137 10.028 0.0606112 9.93385C0.0210853 9.8397 0.000492703 9.73867 8.73383e-06 9.63656C-0.000475236 9.53444 0.019159 9.43322 0.0577906 9.3387C0.0964222 9.24417 0.153294 9.15817 0.22516 9.08562L4.13408 5.19059L0.22516 1.29557C0.0914168 1.1482 0.0195014 0.955029 0.0243189 0.756081C0.0291364 0.557133 0.110318 0.367663 0.251037 0.226945C0.391755 0.0862255 0.581223 0.00504589 0.780171 0.000227928C0.979119 -0.00458908 1.17229 0.0673256 1.31966 0.201069L5.78452 4.64508C5.92503 4.79167 6.00239 4.98755 5.99994 5.19059Z" fill="#226819"/>
</svg>
