<svg width="21" height="25" viewBox="0 0 21 25" fill="none" xmlns="http://www.w3.org/2000/svg">
<path d="M18.5083 5.09656C18.4865 4.86878 18.2996 4.69433 18.0756 4.69433H14.1627V4.24988C14.1627 2.04431 12.4072 0.25 10.2497 0.25C8.09225 0.25 6.33679 2.04446 6.33679 4.24988V4.69433H2.42384C2.19992 4.69433 2.01187 4.86877 1.99122 5.09656L0.25207 23.7633C0.240114 23.8878 0.28033 24.0111 0.362941 24.1044C0.445552 24.1967 0.562944 24.25 0.68467 24.25H19.8153C19.9371 24.25 20.0545 24.1967 20.1371 24.1044C20.2197 24.0111 20.2599 23.8878 20.2479 23.7633L18.5083 5.09656ZM7.206 4.24988C7.206 2.53433 8.57122 1.13861 10.2497 1.13861C11.9281 1.13861 13.2933 2.53416 13.2933 4.24988V4.69433H7.20628L7.206 4.24988ZM1.16238 23.3612L2.81892 5.58336H6.33645V7.4245C5.58862 7.62339 5.03209 8.31339 5.03209 9.13894C5.03209 10.1189 5.81254 10.9167 6.77124 10.9167C7.72995 10.9167 8.51039 10.1189 8.51039 9.13894C8.51039 8.31228 7.95386 7.62338 7.20603 7.4245V5.58336H13.2931V7.4245C12.5452 7.62339 11.9887 8.31339 11.9887 9.13894C11.9887 10.1189 12.7691 10.9167 13.7278 10.9167C14.6865 10.9167 15.467 10.1189 15.467 9.13894C15.467 8.31228 14.9105 7.62338 14.1626 7.4245V5.58336H17.6802L19.3367 23.3612H1.16238ZM6.77108 8.25005C7.25044 8.25005 7.64065 8.64892 7.64065 9.13894C7.64065 9.62895 7.25044 10.0278 6.77108 10.0278C6.29171 10.0278 5.9015 9.62895 5.9015 9.13894C5.9015 8.64892 6.29171 8.25005 6.77108 8.25005ZM13.7277 8.25005C14.207 8.25005 14.5973 8.64892 14.5973 9.13894C14.5973 9.62895 14.207 10.0278 13.7277 10.0278C13.2483 10.0278 12.8581 9.62895 12.8581 9.13894C12.8581 8.64892 13.2483 8.25005 13.7277 8.25005Z" fill="white" stroke="white" stroke-width="0.5"/>
</svg>
