<svg width="21" height="22" viewBox="0 0 21 22" fill="none" xmlns="http://www.w3.org/2000/svg">
<path d="M19.1332 15.4427C18.0552 13.9054 16.6002 12.6958 14.9017 11.9159C16.3872 10.6762 17.3326 8.82206 17.3326 6.75398C17.3326 3.02951 14.2681 0 10.5006 0C6.73311 0 3.66861 3.02951 3.66861 6.75398C3.66861 8.82192 4.614 10.6762 6.09949 11.9159C4.39994 12.6948 2.94485 13.9055 1.86688 15.4427C0.645476 17.184 0 19.2207 0 21.335C0 21.7024 0.300998 22 0.672655 22C1.04431 22 1.34531 21.7024 1.34531 21.335C1.34531 17.6642 3.67404 14.2824 7.1416 12.9203C7.23506 12.8837 7.31438 12.8279 7.37958 12.7613C8.31521 13.2382 9.37688 13.5079 10.5006 13.5079C11.6242 13.5079 12.6848 13.2382 13.6215 12.7613C13.6867 12.8279 13.7661 12.8837 13.8595 12.9203C17.326 14.2824 19.6547 17.6642 19.6547 21.335C19.6547 21.7024 19.9557 22 20.3273 22C20.699 22 21 21.7024 21 21.335C21 19.2209 20.3546 17.1829 19.1332 15.4427ZM5.01523 6.75398C5.01523 3.76324 7.47654 1.32995 10.5019 1.32995C13.5273 1.32995 15.9886 3.76316 15.9886 6.75398C15.9886 9.7448 13.5273 12.178 10.5019 12.178C7.47654 12.178 5.01523 9.7448 5.01523 6.75398Z" fill="white"/>
</svg>
