<svg width="79" height="75" viewBox="0 0 79 75" fill="none" xmlns="http://www.w3.org/2000/svg">
<path d="M8.99028 40.6723C9.02041 23.6472 22.9341 9.71851 39.8838 9.84658C57.3275 9.97896 71.1421 24.2693 70.5556 41.7464C70.0056 58.1181 56.4654 71.4969 39.5943 71.4183C22.7823 71.3387 8.96122 57.4885 8.99028 40.6723ZM55.1029 44.8492C54.8155 45.4422 54.738 45.694 54.5906 45.8942C51.4803 50.0894 49.3773 54.7011 48.2924 59.8455C47.9018 61.6977 46.9009 63.4972 45.8601 65.1169C44.7355 66.8669 42.6669 66.9142 41.2043 65.4194C40.5866 64.7876 40.0678 64.0095 39.6793 63.212C38.4233 60.6333 38.0488 57.8351 37.8518 55.0132C37.6269 51.7845 36.4635 50.4262 33.3133 49.759C31.7356 49.4243 30.1524 49.1025 28.5908 48.7021C26.5976 48.192 25.1027 46.9597 24.5086 45.0063C24.0706 43.5663 23.8101 41.9842 23.8973 40.4904C24.1394 36.3598 27.45 33.5841 31.4471 34.0512C32.6977 34.1976 33.9774 34.5129 35.1268 35.0177C36.7713 35.7399 38.2931 36.7343 39.8978 37.5522C40.3713 37.7944 41.0644 38.0957 41.4594 37.9214C43.4106 37.0626 45.3016 36.066 47.1947 35.0823C47.4594 34.9445 47.6219 34.6109 47.9179 34.2686C46.6469 33.7886 47.1086 33.2032 47.6392 32.6026C48.0621 32.1248 48.5002 31.6555 48.8779 31.1432C49.3149 30.5524 49.1373 30.1154 48.4668 29.8162C47.284 29.2889 46.1927 29.6268 45.6481 30.8322C45.2015 31.8213 44.9217 32.8846 44.4955 33.8833C43.9638 35.1318 43.1243 35.4084 42.1105 34.5129C41.1365 33.652 40.3326 32.5897 39.5071 31.5716C38.9184 30.8462 38.49 29.983 37.8626 29.2975C36.9123 28.26 35.9006 28.316 34.9589 29.3685C34.4843 29.8991 34.1065 30.5179 33.6244 31.041C32.744 31.9978 31.629 32.3938 30.3569 32.0763C30.0136 31.9913 29.7467 31.6006 29.4442 31.3499C29.737 31.1056 29.9974 30.7935 30.33 30.6342C30.7745 30.4211 31.2771 30.3264 31.9088 30.1326C31.4999 29.6462 31.1716 29.3685 30.9983 29.0144C30.8552 28.7217 30.7357 28.2363 30.8799 28.0135C32.1661 26.0203 36.3612 24.2661 38.4007 26.0257C40.0538 27.4517 41.4185 26.8835 42.1116 24.887C42.4495 23.9152 42.1837 23.4675 41.157 23.3362C40.6371 23.2695 40.0915 23.3265 39.5932 23.1952C39.2779 23.1123 38.9012 22.8347 38.7914 22.5516C38.7214 22.3708 39.026 21.9166 39.2725 21.7649C40.0689 21.2763 40.8771 20.7543 41.7532 20.4562C44.3803 19.5618 47.0375 18.7546 49.6916 17.9421C50.3857 17.729 50.9152 17.4868 50.9917 16.628C51.0681 15.7648 50.5364 15.556 49.9122 15.3246C40.5381 11.8548 31.7635 12.9957 23.5852 18.7342C23.2322 18.9817 22.9147 19.2798 22.425 19.6813C22.8663 19.7082 23.089 19.6856 23.2914 19.7415C23.8123 19.8858 24.3235 20.0644 24.839 20.2291C24.6474 20.7295 24.5839 21.3548 24.2417 21.7089C22.1301 23.8915 20.0013 26.0623 17.7735 28.1233C17.1568 28.6937 16.1806 28.8724 15.3756 29.2469C15.1937 29.3319 14.9613 29.4449 14.8881 29.6064C13.5213 32.6371 12.7604 35.812 12.586 39.2882C12.9218 39.0579 13.1263 38.9083 13.3404 38.7716C14.0927 38.2905 14.915 37.5318 15.7749 38.2271C16.6144 38.9062 16.4766 39.9856 16.1645 40.9575C16.0504 41.3116 15.9223 41.6882 15.6974 41.9734C15.0269 42.8269 14.3532 43.689 13.5848 44.452C13.1037 44.9299 12.939 45.3378 13.0714 46.0223C15.8718 60.5354 30.3849 70.3701 44.856 67.3878C55.4441 65.2052 62.3901 58.7994 65.875 48.5891C66.0956 47.9423 65.9837 47.5236 65.5833 46.9704C64.9968 46.16 64.4264 45.2549 64.1745 44.3046C63.8301 43.0045 63.0692 42.5342 61.8477 42.4642C58.6233 42.2791 55.401 42.0294 52.1734 41.9089C51.4275 41.8809 50.6053 42.1403 49.9294 42.4857C49.0533 42.9335 48.6401 43.802 48.95 44.7792C49.2664 45.7769 50.1404 45.6391 50.9422 45.5132C52.2272 45.3109 53.5101 45.1042 55.1029 44.8492Z" fill="white"/>
<path d="M64.8659 19.5512C66.547 17.9637 68.2346 16.3687 69.9813 14.7178C68.8986 13.7674 67.8902 12.8333 66.8172 11.982C66.6148 11.8216 66.1036 11.8808 65.8238 12.0196C65.2222 12.3167 64.6776 12.7299 64.0394 13.1421C63.681 12.8709 63.3 12.5825 62.7812 12.1897C64.6905 10.6582 66.5266 9.14929 66.928 6.57277C68.0903 6.96775 68.4638 7.48004 68.0204 8.61009C67.408 10.1706 67.4887 10.2008 68.8943 11.0758C69.723 11.5913 70.5463 12.1154 71.4988 12.717C72.5697 10.6151 73.6362 8.52292 74.7663 6.30371C75.2463 6.5943 75.6789 6.85582 76.2063 7.17547C75.5648 9.3753 74.9546 11.5665 74.2755 13.7362C74.0635 14.4132 74.1862 14.7759 74.7491 15.2408C76.0416 16.3063 77.2502 17.4794 78.4449 18.6568C78.6687 18.8774 78.673 19.3208 78.7785 19.662C78.3986 19.6803 77.9369 19.8493 77.6538 19.6921C76.1557 18.8624 74.6726 17.996 73.2488 17.0457C72.7203 16.6927 72.3867 16.6571 71.868 17.0037C70.3074 18.0477 68.7124 19.041 67.1303 20.0516C65.8754 20.8545 65.8744 20.8534 64.8659 19.5512Z" fill="white"/>
<path d="M43.1673 0C43.1673 1.02243 43.1673 2.04809 43.1673 3.17491C40.9233 3.17491 38.731 3.17491 36.416 3.17491C36.416 2.16863 36.416 1.14943 36.416 0C38.6148 0 40.8125 0 43.1673 0Z" fill="white"/>
<path d="M3.24124 36.9229C2.12518 36.6367 1.12535 36.3805 0.0566406 36.1061C0.620591 33.8438 1.15979 31.6773 1.7162 29.4463C2.79352 29.7175 3.76214 29.9618 4.90403 30.2502C4.34977 32.4781 3.80519 34.6628 3.24124 36.9229Z" fill="white"/>
<path d="M46.4941 3.22583C46.7772 2.10224 47.0215 1.12931 47.2981 0.0283203C49.5227 0.578279 51.6827 1.11317 53.9493 1.67389C53.6856 2.76412 53.451 3.73489 53.1776 4.86818C50.9573 4.32252 48.7962 3.79193 46.4941 3.22583Z" fill="white"/>
<path d="M33.252 4.08427C30.9758 4.73647 28.8556 5.34347 26.6213 5.98384C26.32 4.92697 26.0369 3.93359 25.7227 2.8326C27.9171 2.19224 30.0308 1.57555 32.2823 0.917969C32.6009 1.95762 32.9023 2.9413 33.252 4.08427Z" fill="white"/>
<path d="M5.79496 27.1249C4.80805 26.5782 3.93629 26.0939 2.91602 25.5277C4.03746 23.5001 5.12661 21.5284 6.25236 19.4922C7.25434 20.0604 8.15623 20.5727 9.1227 21.1205C8.01632 23.118 6.95192 25.0391 5.79496 27.1249Z" fill="white"/>
<path d="M6.02094 56.7898C4.92748 57.1051 3.96317 57.3839 2.85787 57.7035C2.22504 55.5166 1.6062 53.377 0.955078 51.1244C2.01948 50.8016 3.00639 50.5024 4.10201 50.1709C4.73914 52.3686 5.36121 54.5125 6.02094 56.7898Z" fill="white"/>
<path d="M56.2871 5.77134C56.8328 4.78335 57.3311 3.88254 57.8821 2.88379C59.9237 4.01492 61.8717 5.09331 63.8972 6.21475C63.3386 7.21673 62.836 8.11862 62.2979 9.08617C60.2703 7.96903 58.3158 6.89063 56.2871 5.77134Z" fill="white"/>
<path d="M16.1895 8.30434C18.1988 7.09142 20.0854 5.95276 22.0873 4.74414C22.6426 5.66433 23.1732 6.54577 23.7866 7.56389C21.8451 8.73161 19.938 9.87996 17.9071 11.1026C17.3421 10.1824 16.8051 9.30632 16.1895 8.30434Z" fill="white"/>
<path d="M11.3008 70.0237C11.8755 69.4221 12.574 68.6913 13.4683 67.7539C14.9794 69.5168 16.4571 71.2398 17.9939 73.0329C17.5559 73.4537 16.8025 74.1769 15.9448 75.0002C14.4036 73.3493 12.871 71.7069 11.3008 70.0237Z" fill="white"/>
<path d="M8.32053 67.2178C7.12913 65.2386 5.97648 63.3228 4.77539 61.3275C5.74939 60.7442 6.63944 60.2114 7.59729 59.6367C8.78224 61.6009 9.92198 63.4907 11.1564 65.5356C10.2298 66.0845 9.32036 66.6247 8.32053 67.2178Z" fill="white"/>
<path d="M0 46.9618C0 44.7253 0 42.561 0 40.2891C1.00629 40.2891 2.03194 40.2891 3.18137 40.2891C3.18137 42.4663 3.18137 44.6608 3.18137 46.9618C2.22674 46.9618 1.20324 46.9618 0 46.9618Z" fill="white"/>
<path d="M10.4126 18.0261C9.99605 17.5149 9.33524 16.7056 8.5625 15.7563C10.0778 14.4186 11.7568 12.9366 13.5003 11.3965C13.9588 11.9055 14.6519 12.6751 15.4364 13.5468C13.8608 14.9513 12.1927 16.4387 10.4126 18.0261Z" fill="white"/>
</svg>
