<svg width="26" height="24" viewBox="0 0 26 24" fill="none" xmlns="http://www.w3.org/2000/svg">
<path d="M21.3743 7.12914C21.2148 6.82395 21.3334 6.44675 21.6386 6.2872C21.9446 6.12764 22.321 6.24628 22.4806 6.55148C22.9216 7.39261 23.2652 8.2902 23.496 9.22951C23.721 10.1467 23.8413 11.1016 23.8413 12.0794C23.8413 15.3711 22.5068 18.351 20.3499 20.5087C18.1923 22.6663 15.2123 24 11.9206 24C8.62894 24 5.64898 22.6655 3.49134 20.5087C1.3337 18.351 0 15.3711 0 12.0794C0 8.78767 1.33452 5.80772 3.49134 3.65008C5.64898 1.49243 8.62894 0.158735 11.9206 0.158735C12.9467 0.158735 13.949 0.290468 14.9104 0.539206C15.8964 0.793673 16.8332 1.17169 17.703 1.65526C18.0049 1.82299 18.1129 2.20346 17.9452 2.50457C17.7774 2.80567 17.397 2.9145 17.0959 2.74676C16.3177 2.31392 15.4791 1.976 14.597 1.74772C13.7477 1.52761 12.8509 1.41143 11.9215 1.41143C8.97586 1.41143 6.30847 2.60521 4.37829 4.53621C2.44811 6.46639 1.25351 9.13378 1.25351 12.0794C1.25351 15.025 2.44729 17.6924 4.37829 19.6225C6.30847 21.5527 8.97586 22.7473 11.9215 22.7473C14.867 22.7473 17.5344 21.5535 19.4646 19.6225C21.3948 17.6924 22.5894 15.025 22.5894 12.0794C22.5894 11.1957 22.483 10.3407 22.2834 9.52734C22.0756 8.6813 21.7679 7.877 21.376 7.12832L21.3743 7.12914ZM5.66944 11.802C6.97368 13.0891 8.66658 14.9112 10.2367 17.1065C10.5984 17.613 11.1491 17.8765 11.7701 17.8413C12.3911 17.8061 12.9082 17.4821 13.211 16.9388C15.8407 12.2136 21.6124 2.44484 25.6593 0C25.6593 0 18.5114 1.06041 11.5999 13.1979L8.23292 9.37925C6.63739 7.57016 3.95282 10.1083 5.66944 11.8028V11.802Z" fill="#226819"/>
</svg>
